<?xml version="1.0" encoding="UTF-8" standalone="no"?>
<!-- Created with Inkscape (http://www.inkscape.org/) -->

<svg
   xmlns:osb="http://www.openswatchbook.org/uri/2009/osb"
   xmlns:dc="http://purl.org/dc/elements/1.1/"
   xmlns:cc="http://creativecommons.org/ns#"
   xmlns:rdf="http://www.w3.org/1999/02/22-rdf-syntax-ns#"
   xmlns:svg="http://www.w3.org/2000/svg"
   xmlns="http://www.w3.org/2000/svg"
   xmlns:sodipodi="http://sodipodi.sourceforge.net/DTD/sodipodi-0.dtd"
   xmlns:inkscape="http://www.inkscape.org/namespaces/inkscape"
   width="481.77316"
   height="227.44258"
   id="svg4131"
   version="1.1"
   inkscape:version="0.48.2 r9819"
   sodipodi:docname="LAP.svg">
  <defs
     id="defs4133">
    <linearGradient
       id="linearGradient6181"
       osb:paint="solid">
      <stop
         style="stop-color:#695d70;stop-opacity:0.51555556;"
         offset="0"
         id="stop6183" />
    </linearGradient>
    <inkscape:path-effect
       effect="spiro"
       id="path-effect4203"
       is_visible="true" />
    <inkscape:path-effect
       effect="spiro"
       id="path-effect4156"
       is_visible="true" />
    <inkscape:path-effect
       effect="spiro"
       id="path-effect4152"
       is_visible="true" />
    <inkscape:path-effect
       effect="spiro"
       id="path-effect4148"
       is_visible="true" />
    <inkscape:path-effect
       effect="spiro"
       id="path-effect4144"
       is_visible="true" />
  </defs>
  <sodipodi:namedview
     inkscape:document-units="mm"
     pagecolor="#ffffff"
     bordercolor="#666666"
     borderopacity="1.0"
     inkscape:pageopacity="0.0"
     inkscape:pageshadow="2"
     inkscape:zoom="1.2279853"
     inkscape:cx="317.16249"
     inkscape:cy="51.977945"
     inkscape:current-layer="layer1"
     id="namedview4135"
     showgrid="true"
     inkscape:window-width="1920"
     inkscape:window-height="1091"
     inkscape:window-x="0"
     inkscape:window-y="0"
     inkscape:window-maximized="1"
     units="mm"
     fit-margin-top="1"
     fit-margin-left="1"
     fit-margin-right="1"
     fit-margin-bottom="1">
    <inkscape:grid
       type="xygrid"
       id="grid4140"
       empspacing="5"
       visible="true"
       enabled="true"
       snapvisiblegridlinesonly="true" />
  </sodipodi:namedview>
  <metadata
     id="metadata4137">
    <rdf:RDF>
      <cc:Work
         rdf:about="">
        <dc:format>image/svg+xml</dc:format>
        <dc:type
           rdf:resource="http://purl.org/dc/dcmitype/StillImage" />
        <dc:title></dc:title>
      </cc:Work>
    </rdf:RDF>
  </metadata>
  <g
     inkscape:label="Layer 1"
     inkscape:groupmode="layer"
     id="layer1"
     transform="translate(-186.27953,-150.37237)">
    <path
       style="fill:#ff2a2a;stroke:#000000;stroke-width:1.77165353999999997;stroke-linejoin:round;stroke-miterlimit:4;stroke-opacity:1;stroke-dasharray:none;marker-start:none;fill-opacity:1"
       d="m 190,364.09448 0,-120 c 0,-90 0,-80 0,-80 0,-10 3.77348,-10 10,-10 l 20,0 c 7.5,0 10,0 10,10 0,-10 0,68.01593 0,80 l 0,80 c -0.026,5.77648 0,10 10,10 l 45,0 c 4.07459,-0.3683 5.04275,0 10,-10 l 36.29463,-73.21524 c 19.52145,-39.37959 35.56299,-73.40351 36.59535,-75.14539 4.01338,-6.77167 9.40016,-12.11141 15.34306,-15.20906 11.94701,-6.22721 25.19507,-2.54988 35.13527,9.75266 3.57049,4.41903 6.67226,6.01324 46.63169,88.81703 18.42994,38.19046 30,65 30,65 5,10 5,10 10,10 l 20,0 c 2.73206,0.10899 5,0 5,-5 0.0455,-104.65913 0,-162.79991 0,-165 0,-5 5,-10 10,-10 3.30474,0 56.75048,0.0545 65,0 25.05514,-0.16565 41.22496,12.29714 50.8105,26.92315 12.06466,18.40874 11.22065,41.41102 -1.90738,58.48429 -20.2821,27.22253 -54.08397,24.59256 -58.90312,24.59256 l -15,0 c -5,0 -10,0 -10,5 l 0,95 c 0,2.59836 0.29321,10 -10,10 l -40,0 -35,0 0,0 c -5.94938,-0.097 -7.74807,-2.68449 -10,-5 -1.69729,-1.74521 -18.06817,-34.13857 -35.51153,-70.51072 -32.16437,-67.06799 -37.32666,-77.31803 -40.62874,-80.67106 -2.79253,-2.83564 -5.223,-2.6304 -8.14369,0.68768 -3.63137,4.12545 -7.65171,12.12835 -40.51428,80.64785 -17.16407,35.78763 -33.78033,68.42482 -35.20176,69.84625 -5,5 -10,5 -10,5 l -105,0 c -10,0 -9.8458,-5.69363 -10,-10 z m 420,-175 0,0 -20,0 c -5,0 -11.19827,0 -15,0 -5,0 -5,2.5 -5,5 0,4.62224 0.17225,9.84424 0,15 0,9.82445 0,13.77204 0,15 0,2.5 0,5 5,5 2.57694,0 5,0 15,0 l 20,0 c 20.87776,-0.47917 20,-40 0,-40 z"
       id="path4229"
       inkscape:connector-curvature="0"
       sodipodi:nodetypes="cscsscccccssssssscccsssscsccsscccssssssccccccsscssscc" />
  </g>
</svg>
